<svg xmlns="http://www.w3.org/2000/svg" xmlns:xlink="http://www.w3.org/1999/xlink" viewBox="0 0 291.42 184.44"><defs><style>.cls-1{fill:#030039;}.cls-2{fill:url(#linear-gradient);}.cls-3{fill:url(#linear-gradient-2);}.cls-4{fill:url(#linear-gradient-3);}.cls-5{fill:url(#linear-gradient-4);}.cls-6{opacity:0.2;}.cls-7{fill:url(#linear-gradient-5);}</style><linearGradient id="linear-gradient" x1="187.62" y1="18.91" x2="101.95" y2="97.68" gradientUnits="userSpaceOnUse"><stop offset="0" stop-color="#40c4ff"/><stop offset="1" stop-color="#9153ff"/></linearGradient><linearGradient id="linear-gradient-2" x1="86.17" y1="44.63" x2="200.98" y2="44.63" xlink:href="#linear-gradient"/><linearGradient id="linear-gradient-3" x1="111.45" y1="14.26" x2="193.33" y2="14.26" xlink:href="#linear-gradient"/><linearGradient id="linear-gradient-4" x1="100.15" y1="103.99" x2="210.78" y2="103.99" xlink:href="#linear-gradient"/><linearGradient id="linear-gradient-5" x1="-147.42" y1="93.91" x2="-208.05" y2="204" gradientTransform="matrix(0.87, 0.49, -0.49, 0.87, 377.66, 21.86)" xlink:href="#linear-gradient"/></defs><g id="Layer_2" data-name="Layer 2"><g id="Layer_1-2" data-name="Layer 1"><path class="cls-1" d="M.91,153.67a13.57,13.57,0,0,1,3.33-5.58A12.38,12.38,0,0,1,10,145c.87-.2,1.76-.36,2.69-.48a23.7,23.7,0,0,1,2.78-.17,21.65,21.65,0,0,1,3,.13,18.74,18.74,0,0,1,2.91.57,12.16,12.16,0,0,1,5.7,3,13,13,0,0,1,3.26,5.6A25.49,25.49,0,0,1,31,157a25.44,25.44,0,0,1,.24,3.48,29.21,29.21,0,0,1-.22,3.65,20.35,20.35,0,0,1-.69,3.39A12.65,12.65,0,0,1,27,173.21a12.23,12.23,0,0,1-5.82,3,22,22,0,0,1-2.87.5,29.54,29.54,0,0,1-3,.15,20.26,20.26,0,0,1-2.69-.18,25.74,25.74,0,0,1-2.65-.47,12.23,12.23,0,0,1-5.78-3,12.65,12.65,0,0,1-3.31-5.67,23.6,23.6,0,0,1-.67-3.31,26.87,26.87,0,0,1-.24-3.6A29.24,29.24,0,0,1,.22,157a17,17,0,0,1,.69-3.29Zm6.78,2.22a17.32,17.32,0,0,0-.43,2.37,20.91,20.91,0,0,0-.13,2.37A19.37,19.37,0,0,0,7.28,163c.1.8.24,1.57.41,2.32a9.27,9.27,0,0,0,1.59,3.48A6.3,6.3,0,0,0,12.39,171a7.74,7.74,0,0,0,1.56.39,10.21,10.21,0,0,0,1.65.14,10.43,10.43,0,0,0,1.66-.14,7.74,7.74,0,0,0,1.56-.39A6.45,6.45,0,0,0,22,168.84a8.65,8.65,0,0,0,1.56-3.48c.18-.75.31-1.52.42-2.32a19.37,19.37,0,0,0,.15-2.41,18.85,18.85,0,0,0-.15-2.37c-.11-.8-.24-1.57-.42-2.33a8.93,8.93,0,0,0-1.56-3.5,6.23,6.23,0,0,0-3.13-2.15,9.37,9.37,0,0,0-1.56-.39,10.41,10.41,0,0,0-1.66-.13,10.19,10.19,0,0,0-1.65.13,9.37,9.37,0,0,0-1.56.39,6.28,6.28,0,0,0-3.09,2.17,10.32,10.32,0,0,0-1.61,3.48Z"/><path class="cls-1" d="M50.2,153.28a11,11,0,0,1,8,3,11.54,11.54,0,0,1,3.11,7.95,14.91,14.91,0,0,1-.44,4.52,10.26,10.26,0,0,1-2,4,7.54,7.54,0,0,1-4.08,2.87,20.14,20.14,0,0,1-5,.61H44.59v8.25h-6V153.28Zm-5.61,5v13a4.15,4.15,0,0,0,.59,0h.59a20.82,20.82,0,0,0,6.78-.85c1.74-.59,2.56-2.7,2.48-6.32q-.14-4.58-2.61-5.26a21,21,0,0,0-6-.65c-.32,0-.63,0-.93,0h-.94Z"/><path class="cls-1" d="M74,175.6a8.2,8.2,0,0,1-4-2.46,9.27,9.27,0,0,1-2-3.47,16.63,16.63,0,0,1-.76-4v-1.46a4.08,4.08,0,0,1,0-.59,15.47,15.47,0,0,1,.76-3.84,9.35,9.35,0,0,1,2-3.37,8.14,8.14,0,0,1,4-2.5,18.9,18.9,0,0,1,4.72-.59l8.82,0v4.78h-8a10,10,0,0,0-4,.76c-1,.48-1.55,1.68-1.61,3.59l13.65,0v4.79H73.93c.06,2,.57,3.21,1.52,3.65a10.29,10.29,0,0,0,4.09.65l8,0v4.79H78.76A18.9,18.9,0,0,1,74,175.6Z"/><path class="cls-1" d="M106.31,153.28a12.48,12.48,0,0,1,7,1.78q2.52,1.74,2.52,6.65v14.48h-6V162.41a4.83,4.83,0,0,0-.78-3.22c-.52-.55-1.59-.82-3.22-.82l-4.86-.05v17.87h-6V153.28Z"/><path class="cls-1" d="M136.43,157.67H152v18.52H137.82a29.61,29.61,0,0,1-5.21-.46,10.18,10.18,0,0,1-4.7-2.24,11.34,11.34,0,0,1-3.65-5.19,21.46,21.46,0,0,1-1.13-6.28c0-.47,0-.92,0-1.35s0-.87.07-1.3q.46-7.4,4-10.87T137.82,145L152,145v5.39H137.82c-3.1,0-5.1,1.12-6,3.28a18.13,18.13,0,0,0-1.37,7.11v.13a15.74,15.74,0,0,0,1.37,6.82c.92,1.91,2.92,2.87,6,2.87l7.39,0v-7.35h-8.78Z"/><path class="cls-1" d="M169.55,176.19a12.2,12.2,0,0,1-7-1.74q-2.57-1.74-2.57-6.61V153.28h6v14c0,1.54.29,2.56.87,3.09a4.67,4.67,0,0,0,3.09.78l4.87-.05V153.28h6v22.91Z"/><path class="cls-1" d="M195.35,175.6a8.16,8.16,0,0,1-4-2.46,9.14,9.14,0,0,1-2-3.47,16.17,16.17,0,0,1-.77-4v-1.46a4.15,4.15,0,0,1,.05-.59,15.47,15.47,0,0,1,.76-3.84,9.35,9.35,0,0,1,2-3.37,8.1,8.1,0,0,1,4-2.5,18.88,18.88,0,0,1,4.71-.59l8.83,0v4.78h-8a10,10,0,0,0-4,.76c-1,.48-1.55,1.68-1.61,3.59l13.65,0v4.79H195.24c.06,2,.56,3.21,1.52,3.65a10.23,10.23,0,0,0,4.08.65l8,0v4.79h-8.83A18.88,18.88,0,0,1,195.35,175.6Z"/><path class="cls-1" d="M228.62,171.4a.34.34,0,0,0,.17,0H229a5,5,0,0,0,2-.48,1.77,1.77,0,0,0,.92-1.78,1.72,1.72,0,0,0-.87-1.7,5.21,5.21,0,0,0-1.87-.52h-.52l-5.22,0a12.89,12.89,0,0,1-5.76-1c-1.4-.7-2.12-2.46-2.15-5.3,0-2.67.7-4.55,2.17-5.65a9.62,9.62,0,0,1,5.92-1.66l13,0v4.78H225.88a.79.79,0,0,1-.24.05h-1.46a4.31,4.31,0,0,0-1.5.34,1.6,1.6,0,0,0-.93,1.13c-.23,1,0,1.71.61,2.09a4.22,4.22,0,0,0,2.21.56l5.48,0a9.74,9.74,0,0,1,5.39,1.5q2.17,1.45,2.3,5v.13a8.22,8.22,0,0,1-1.58,5.06,5.39,5.39,0,0,1-4.67,2.29H215.88V171.4Z"/><path class="cls-1" d="M257.91,171.4a.41.41,0,0,0,.18,0h.17a5.11,5.11,0,0,0,2-.48,1.76,1.76,0,0,0,.91-1.78,1.72,1.72,0,0,0-.87-1.7,5.16,5.16,0,0,0-1.87-.52h-.52l-5.21,0a12.84,12.84,0,0,1-5.76-1c-1.41-.7-2.13-2.46-2.15-5.3q0-4,2.17-5.65a9.61,9.61,0,0,1,5.91-1.66l13,0v4.78h-10.7a.69.69,0,0,1-.24.05h-1.45a4.31,4.31,0,0,0-1.5.34,1.62,1.62,0,0,0-.94,1.13c-.23,1,0,1.71.61,2.09a4.26,4.26,0,0,0,2.22.56l5.48,0a9.74,9.74,0,0,1,5.39,1.5q2.16,1.45,2.3,5v.13a8.23,8.23,0,0,1-1.59,5.06,5.37,5.37,0,0,1-4.67,2.29h-15.6V171.4Z"/><path class="cls-1" d="M285,153.28q4.9,0,5.69,2.26a17.79,17.79,0,0,1,.74,6v1.43l-5.78,0v-1c0-2.11-.17-3.35-.5-3.69s-1.54-.53-3.63-.53h-.65v18.48h-6V153.28Z"/><path class="cls-2" d="M211.4,60.56a96.47,96.47,0,0,1-6.23,9.79c-21.74,30.1-54,37-81.14,33.65-16.17-2-30.51-7.56-39.67-14a65.85,65.85,0,0,1-1.09-45.17c.4,1.18.83,2.33,1.32,3.43A44.52,44.52,0,0,0,92,60c7.08,8.1,16.67,13.5,26.5,17.1,2.53.93,5.66,2,9.24,2.94,18.54,5,49.25,8.3,71.71-14.92a73.54,73.54,0,0,0,10.47-14A66.9,66.9,0,0,1,211.4,60.56Z"/><path class="cls-3" d="M201,30.07c-.25.58-.53,1.15-.81,1.72-5.2,10.79-11.88,18.75-19.42,24.35-13.21,9.83-29,12.45-44.18,10.4a81.46,81.46,0,0,1-30-10.39C98,51.08,90.77,44.67,86.17,37.75c.7-1.48,1.4-3,2.22-4.39a65.66,65.66,0,0,1,8-11.22c10.35,9.63,22.68,15.42,32.42,18.63a85.08,85.08,0,0,0,9.24,2.5c17,3.53,36.8.48,51.56-14.94a58.28,58.28,0,0,0,5.22-6.26A65.87,65.87,0,0,1,201,30.07Z"/><path class="cls-4" d="M193.33,20.36a43.76,43.76,0,0,1-14.41,6.24,70.86,70.86,0,0,1-22.44,1.68h0c-16-1.22-32.77-7.24-45-18.66a65.86,65.86,0,0,1,81.88,10.74Z"/><path class="cls-5" d="M210.78,76.12c-.08.45-.14.89-.23,1.35a65.71,65.71,0,0,1-110.4,36,93.86,93.86,0,0,0,28.53,6.72c37.23,2.7,68.47-18.72,81.6-43.15C210.46,76.74,210.61,76.43,210.78,76.12Z"/><g class="cls-6"><path d="M156.48,28.28A72.72,72.72,0,0,1,173,26.35c2,0,3.92.08,5.88.25A70.86,70.86,0,0,1,156.48,28.28Z"/><path d="M124,104c-16.17-2-30.51-7.56-39.67-14a65.85,65.85,0,0,1-1.09-45.17c.4,1.18.83,2.33,1.32,3.43l0,.37A19.2,19.2,0,0,0,87,56.47,7.21,7.21,0,0,0,92,60c7.08,8.1,16.67,13.5,26.5,17.1,2.53.93,5.66,2,9.24,2.94a48.16,48.16,0,0,0-3.94,19.06A44,44,0,0,0,124,104Z"/><path d="M136.3,131.19a65.22,65.22,0,0,1-36.15-17.7,93.86,93.86,0,0,0,28.53,6.72,47.67,47.67,0,0,0,5.17,8.24Z"/><path d="M200.17,31.79c-5.2,10.79-11.88,18.75-19.42,24.35a56.22,56.22,0,0,0-14.67-2A46,46,0,0,0,153,56a32.67,32.67,0,0,0-10.83,5.45,48.15,48.15,0,0,0-5.6,5.13,81.46,81.46,0,0,1-30-10.39c1.36-.7,2.72-1.49,4.07-2.31a157.36,157.36,0,0,0,15-10.7h0c1-.82,2.11-1.61,3.17-2.36a85.08,85.08,0,0,0,9.24,2.5c17,3.53,36.8.48,51.56-14.94A70.34,70.34,0,0,1,200.17,31.79Z"/><path d="M211.4,60.56a96.47,96.47,0,0,1-6.23,9.79,43.62,43.62,0,0,0-5.75-5.19,73.54,73.54,0,0,0,10.47-14A66.9,66.9,0,0,1,211.4,60.56Z"/></g><path class="cls-7" d="M140.57,59.37a50.41,50.41,0,0,0-8.72,70.74l.22.25a63.88,63.88,0,0,1-12.13-3.8c-.8-.33-1.6-.66-2.33-1s-1.36-.65-2-1c-.83-.43-1.63-.84-2.44-1.3A65.45,65.45,0,0,1,97.32,110.7c-.66-.71-1.28-1.43-1.9-2.15s-1.16-1.37-1.73-2.1c-.09-.13-.21-.28-.3-.42a64.67,64.67,0,0,1-3.85-5.56c-.32-.51-.63-1.06-.94-1.6s-.57-1-.86-1.52l-.83-1.59c-.19-.39-.38-.79-.59-1.2-.34-.72-.7-1.46-1-2.22a48.24,48.24,0,0,1-2.25-5.89c-.26-.85-.55-1.71-.76-2.58a4.42,4.42,0,0,1-.22-.7c-.17-.71-.38-1.44-.55-2.16l-.27-1.26c-.15-.67-.31-1.34-.42-2-.39-2.21-.66-4.42-.85-6.62-.08-1.24-.16-2.48-.19-3.74a67.73,67.73,0,0,1,1.38-14.82c.25-1.22.55-2.41.87-3.63,3.43,29.05,34.32,4.76,45.21-3.75,23.44-18.27,53.48-21.27,77.62-8.24a6.86,6.86,0,0,0,.43.77c0,.07.07.17.11.23a66,66,0,0,1,5.74,35.8C196,51.3,159.31,44.73,140.57,59.37Z"/></g></g></svg>