<?xml version="1.0" standalone="no"?>
<!DOCTYPE svg PUBLIC "-//W3C//DTD SVG 20010904//EN"
 "http://www.w3.org/TR/2001/REC-SVG-20010904/DTD/svg10.dtd">
<svg version="1.0" xmlns="http://www.w3.org/2000/svg"
 width="150.000000pt" height="150.000000pt" viewBox="0 0 150.000000 150.000000"
 preserveAspectRatio="xMidYMid meet">
<metadata>
Created by potrace 1.14, written by Peter Selinger 2001-2017
</metadata>
<g transform="translate(0.000000,150.000000) scale(0.100000,-0.100000)"
fill="#000000" stroke="none">
<path d="M605 1475 c-95 -20 -235 -77 -235 -97 0 -25 168 -124 270 -159 138
-47 347 -62 471 -33 50 12 165 56 178 69 7 7 -59 63 -130 110 -69 46 -139 77
-224 102 -75 21 -247 25 -330 8z"/>
<path d="M172 1217 c-26 -28 -92 -137 -92 -153 0 -31 157 -175 224 -205 14 -7
26 -15 26 -19 0 -9 -90 -49 -128 -56 -36 -7 -72 28 -124 123 -36 66 -37 67
-47 40 -30 -77 -33 -277 -7 -376 59 -229 218 -416 431 -510 84 -37 217 -61
320 -56 112 5 141 10 228 42 230 83 401 268 466 503 23 81 23 81 -34 -5 -119
-178 -370 -348 -576 -389 -13 -3 -45 -9 -72 -14 -77 -15 -252 -15 -264 0 -12
14 -40 107 -45 147 l-3 25 140 -3 c77 -1 160 2 185 8 25 5 61 12 80 15 104 16
276 100 377 185 37 31 94 89 127 128 l59 70 27 -30 27 -31 -3 108 c-2 88 -8
125 -34 207 -29 90 -35 101 -66 115 -36 17 -40 25 -25 52 7 14 1 28 -26 60
l-34 42 -27 -33 c-15 -17 -31 -37 -37 -43 -7 -7 -56 -10 -142 -7 -189 5 -333
-30 -463 -112 -40 -25 -46 -26 -84 -16 -73 21 -240 109 -303 160 l-61 49 -20
-21z m1061 -359 c29 -12 74 -35 100 -51 l48 -30 -33 -35 c-79 -83 -247 -168
-375 -188 -62 -10 -191 -11 -260 -2 -66 9 -183 35 -191 42 -5 6 26 65 60 113
27 37 33 40 59 33 45 -13 217 -4 289 15 71 18 167 63 215 101 16 13 31 24 33
24 2 0 27 -10 55 -22z"/>
</g>
</svg>
